<svg xmlns="http://www.w3.org/2000/svg" xmlns:xlink="http://www.w3.org/1999/xlink" version="1.1" x="0px" y="0px" viewBox="0 0 100 125" style="enable-background:new 0 0 100 100;" xml:space="preserve"><g><g><g><g><path d="M53.1,90.1c-3.9,0-7.1-3.2-7.1-7.1c0-3.9,3.2-7.1,7.1-7.1c3.9,0,7.1,3.2,7.1,7.1      C60.2,86.9,57,90.1,53.1,90.1z M53.1,77.8c-2.9,0-5.2,2.3-5.2,5.2s2.3,5.2,5.2,5.2c2.9,0,5.2-2.3,5.2-5.2S56,77.8,53.1,77.8z"/></g><g><path d="M64.4,90.2c-1.4,0-2.8-0.5-3.8-1.5c-0.4-0.4-0.4-1,0-1.3c0.4-0.4,1-0.4,1.3,0c0.7,0.6,1.5,1,2.5,1      c2,0,3.5-1.6,3.5-3.5c0-2-1.6-3.5-3.5-3.5c-0.6,0-1.1,0.1-1.6,0.4c-0.5,0.2-1,0.1-1.3-0.4c-0.2-0.5-0.1-1,0.4-1.3      c0.8-0.4,1.6-0.6,2.5-0.6c3,0,5.4,2.4,5.4,5.4C69.8,87.7,67.4,90.2,64.4,90.2z"/></g></g><g><g><path d="M76.3,56.8c-0.4,0-0.8,0-1.2-0.1c-2.1-0.4-4-1.9-5.5-4.4c-1.6-2.6-1.8-4.3-2.7-10.5      c-0.2-1.3-0.4-2.8-0.6-4.5c0-0.3,0.1-0.7,0.4-0.9c0.3-0.2,0.6-0.2,1-0.1c1.5,0.7,2.9,1.4,4,1.9c5.9,2.8,7.3,3.5,9.3,5.8      c1.9,2.2,2.8,4.4,2.5,6.6c-0.4,3-2.8,4.8-2.9,4.9C80.6,55.4,78.7,56.8,76.3,56.8z M68.4,38.7c0.1,1,0.3,2,0.4,2.8      c0.8,6.1,1,7.5,2.4,9.8l0,0c1.2,2,2.6,3.2,4.2,3.5c2.2,0.4,4-1,4.1-1c0.1,0,1.9-1.4,2.2-3.6c0.2-1.6-0.5-3.3-2.1-5.1      c-1.8-2-3-2.6-8.7-5.3C70.1,39.5,69.3,39.1,68.4,38.7z"/></g><g><path d="M78.7,64.6c-0.3,0-0.6-0.1-0.8-0.4c-0.3-0.4-0.2-1,0.2-1.3c2-1.4,3-2.9,3-4.3c0-1.8-1.6-3.2-1.6-3.2      C79.1,55,79,54.4,79.3,54c0.3-0.4,0.9-0.5,1.3-0.2c0.1,0.1,2.4,1.9,2.4,4.7c0,2.1-1.3,4-3.8,5.8C79.1,64.5,78.9,64.6,78.7,64.6z      "/></g></g><g><g><path d="M90.4,65.3c-0.2,0-0.4,0-0.6,0c-2.2-0.3-3.5-2.1-3.5-2.1c0,0-1.4-1.8-0.9-4c0.3-1.6,1.4-2.9,3.2-4      c1.9-1.1,3-1.3,7.3-1.9c0.9-0.1,1.9-0.3,3.1-0.4c0.3,0,0.7,0.1,0.9,0.4c0.2,0.3,0.2,0.6,0.1,1c-0.5,1.1-0.9,2-1.3,2.8      c-1.9,4.1-2.4,5.1-4,6.5C93.2,64.7,91.8,65.3,90.4,65.3z M97.5,55c-0.5,0.1-1,0.1-1.4,0.2c-4.1,0.6-5.1,0.7-6.6,1.6l0,0      c-1.3,0.8-2.1,1.7-2.3,2.7c-0.3,1.4,0.6,2.5,0.6,2.5c0,0,0.9,1.2,2.3,1.4c1,0.1,2.1-0.3,3.3-1.4c1.3-1.2,1.7-2,3.6-5.9      C97.1,55.8,97.3,55.4,97.5,55z"/></g><g><path d="M83,68.7c-0.5,0-0.9-0.4-0.9-0.9c0-4.3,4.5-6,4.7-6c0.5-0.2,1,0.1,1.2,0.6c0.2,0.5-0.1,1-0.5,1.2      c0,0-3.4,1.3-3.4,4.3C83.9,68.3,83.5,68.7,83,68.7z"/></g></g><g><path d="M84.4,82.5c-17.4,0-30.3-12.7-30.5-12.8l-4-4c-0.4-0.4-0.7-0.7-0.9-1.2c-0.3-0.4-0.2-1,0.3-1.3     c0.4-0.3,1-0.2,1.3,0.3c0.2,0.3,0.4,0.6,0.7,0.9l4,4c0.2,0.2,19.6,19.2,42.5,9.6c0,0,0.1-0.1,0.1-0.2c0-0.1-0.1-0.1-0.1-0.1     c-4.3-0.9-15.8-3.2-28.3-17.8c-2.2-2.6-4.3-4.9-6.3-6.9l-0.2-0.2c-0.3-0.3-0.5-0.5-0.8-0.7c-0.4-0.3-0.6-0.9-0.3-1.3     c0.3-0.4,0.9-0.6,1.3-0.3c0.4,0.3,0.8,0.6,1.2,0.9l0.2,0.2c2,2,4.1,4.3,6.4,7C81.5,71,91,74.2,98,75.7c0.9,0.2,1.5,0.9,1.6,1.8     c0.1,0.9-0.4,1.8-1.3,2.1C93.5,81.7,88.8,82.5,84.4,82.5z"/></g><g><path d="M49.8,65c-0.3,0-0.5-0.1-0.7-0.3c-0.1-0.1-5.6-6.4,1.1-13c6.6-6.6,13-1.1,13-1c0.4,0.3,0.4,0.9,0.1,1.3     c-0.3,0.4-0.9,0.4-1.3,0.1c-0.2-0.2-5.1-4.4-10.5,1c-5.4,5.4-1.2,10.3-1,10.5c0.3,0.4,0.3,1-0.1,1.3C50.2,64.9,50,65,49.8,65z"/></g><g><path d="M51,62.1c-0.2,0-0.4-0.1-0.5-0.2c-0.4-0.3-0.5-0.9-0.2-1.3c1-1.4,2.9-3,6.2-2.8c-0.3-3.5,1.5-5.4,3.1-6.4     c0.4-0.3,1-0.2,1.3,0.3c0.3,0.4,0.2,1-0.3,1.3c-1.9,1.2-2.6,3.1-2.1,5.7c0.1,0.3,0,0.6-0.3,0.8c-0.2,0.2-0.5,0.3-0.8,0.3     c-2.5-0.5-4.4,0.1-5.6,1.8C51.6,62,51.3,62.1,51,62.1z"/></g><g><path d="M50.2,53.9c-0.3,0-0.6-0.1-0.8-0.4c-0.1-0.2-2.7-3.9-8.3-3.7c-0.5,0-1-0.4-1-0.9c0-0.5,0.4-1,0.9-1     c6.7-0.3,9.8,4.3,10,4.5c0.3,0.4,0.2,1-0.3,1.3C50.5,53.8,50.4,53.9,50.2,53.9z"/></g></g><g><g><path d="M92.3,21H5.6C2.5,21,0,18.5,0,15.4c0-3.1,2.5-5.6,5.6-5.6h86.7c3.1,0,5.6,2.5,5.6,5.6     C97.9,18.5,95.4,21,92.3,21z M5.6,11.7c-2,0-3.7,1.7-3.7,3.7c0,2,1.7,3.7,3.7,3.7h86.7c2,0,3.7-1.7,3.7-3.7c0-2-1.7-3.7-3.7-3.7     H5.6z"/></g><g><path d="M42.3,57.9H28.4c-0.1,0-0.2,0-0.3-0.1C5.9,49.9,4.8,20.4,4.8,20.1c0-0.5,0.4-0.9,0.9-1     c0.5,0,0.9,0.4,1,0.9c0,0.3,1.1,28.4,22,36h13.7c0.5,0,0.9,0.4,0.9,0.9C43.2,57.5,42.8,57.9,42.3,57.9z"/></g><g><path d="M85.4,44.3c-0.2,0-0.3,0-0.5-0.1c-0.4-0.3-0.6-0.8-0.3-1.3c6.2-10.5,6.7-22.7,6.7-22.9     c0-0.5,0.5-0.9,1-0.9c0.5,0,0.9,0.4,0.9,1c0,0.5-0.5,12.9-6.9,23.8C86.1,44.2,85.8,44.3,85.4,44.3z"/></g><g><path d="M42.1,64.1h-9.5c-1.8,0-3.5-0.9-4.5-2.3c-1-1.4-1.3-3.2-0.7-4.9c0.1-0.2,0.1-0.2,0.1-0.2     c0.2-0.5,0.8-0.7,1.2-0.5c0.5,0.2,0.7,0.7,0.5,1.2c0,0,0,0.1-0.1,0.1c-0.4,1.1-0.2,2.3,0.5,3.2c0.7,1,1.8,1.5,3,1.5h9.5     c0.5,0,0.9,0.4,0.9,0.9S42.7,64.1,42.1,64.1z"/></g></g></g><text x="0" y="115" fill="#000000" font-size="5px" font-weight="bold" font-family="'Helvetica Neue', Helvetica, Arial-Unicode, Arial, Sans-serif">Created by Andrei Yushchenko</text><text x="0" y="120" fill="#000000" font-size="5px" font-weight="bold" font-family="'Helvetica Neue', Helvetica, Arial-Unicode, Arial, Sans-serif">from the Noun Project</text></svg>